# xmcd
#
# Track frame offsets:
#	150
#	16212
#	27389
#	41240
#	54153
#	71946
#	87369
#	101323
#	114904
#	132608
#	151356
#	166183
#
# Disc length: 2390 seconds
#
# Revision: 1
# Processed by: cddbd v1.5.2PL0 Copyright (c) Steve Scherf et al.
# Submitted via: audiograbber 1.83.01
#
DISCID=9809540c
DTITLE=KC Johns - Carousel Ride
DYEAR=2010
DGENRE=Country
TTITLE0=Carousel Ride
TTITLE1=Crazy For You
TTITLE2=Dry Land
TTITLE3=Fishing in Daddy's Pond
TTITLE4=Letting Go
TTITLE5=Cowboy That Prays
TTITLE6=Dancing In Her Dreams
TTITLE7=Beautiful To Break
TTITLE8=Get Your Smile On
TTITLE9=Untitled Love Song
TTITLE10=Memory Lane
TTITLE11=Watch Me When I Fly
EXTD=
EXTT0=
EXTT1=
EXTT2=
EXTT3=
EXTT4=
EXTT5=
EXTT6=
EXTT7=
EXTT8=
EXTT9=
EXTT10=
EXTT11=
PLAYORDER=
